<svg id="Capa_1" enable-background="new 0 0 512 512" height="512" viewBox="0 0 512 512" width="512" xmlns="http://www.w3.org/2000/svg"><g><path d="m377 30h-151-150c-8.284 0-15 6.714-15 15v437h165 51.412c14.09 17.457 48.979 30 68.588 30 24.443 0 46-19.991 46-45v-422c0-8.286-6.716-15-15-15z" fill="#f0f7ff"/><path d="m346 512c24.443 0 46-19.991 46-45v-422c0-8.286-6.716-15-15-15h-151v452h51.412c14.09 17.457 48.979 30 68.588 30z" fill="#dfe7f4"/><path d="m482 106h-15-15l-30 15v30l30 15h15 15l30-15v-30z" fill="#613d5c"/><path d="m512 151v-30l-30-15h-15v60h15z" fill="#4b2746"/><path d="m487.156 361h-20.156-21.563l-23.437 15c0 1.5.3 3.3.901 4.799l30 91c1.8 6 7.5 10.201 14.099 10.201s12.299-4.2 14.099-10.201l30-91c.601-1.499.901-3.299.901-4.799z" fill="#ffe1ba"/><path d="m481.099 471.799 30-91c.601-1.499.901-3.299.901-4.799l-24.844-15h-20.156v121c6.599 0 12.299-4.2 14.099-10.201z" fill="#ffbfab"/><path d="m166 181c-3.838 0-7.676-1.465-10.605-4.395l-30-30c-5.859-5.859-5.859-15.352 0-21.211s15.352-5.859 21.211 0l19.394 19.395 19.395-19.395c5.859-5.859 15.352-5.859 21.211 0s5.859 15.352 0 21.211l-30 30c-2.93 2.93-6.768 4.395-10.606 4.395z" fill="#9cdd05"/><path d="m166 271c-3.838 0-7.676-1.465-10.605-4.395l-30-30c-5.859-5.859-5.859-15.352 0-21.211s15.352-5.859 21.211 0l19.394 19.395 19.395-19.395c5.859-5.859 15.352-5.859 21.211 0s5.859 15.352 0 21.211l-30 30c-2.93 2.93-6.768 4.395-10.606 4.395z" fill="#9cdd05"/><path d="m166 361c-3.838 0-7.676-1.465-10.605-4.395l-30-30c-5.859-5.859-5.859-15.352 0-21.211s15.352-5.859 21.211 0l19.394 19.395 19.395-19.395c5.859-5.859 15.352-5.859 21.211 0s5.859 15.352 0 21.211l-30 30c-2.93 2.93-6.768 4.395-10.606 4.395z" fill="#9cdd05"/><path d="m467 151h-45v225h45 45v-225z" fill="#fabe2c"/><path d="m467 151h45v225h-45z" fill="#ff9100"/><path d="m467 61c-24.901 0-45 20.099-45 45v15h45 45v-15c0-24.901-20.099-45-45-45z" fill="#ff641a"/><path d="m512 106c0-24.901-20.099-45-45-45v60h45z" fill="#f03800"/><g fill="#613d5c"><path d="m226 181h90c8.291 0 15-6.709 15-15s-6.709-15-15-15h-90c-8.291 0-15 6.709-15 15s6.709 15 15 15z"/><path d="m316 241h-90c-8.291 0-15 6.709-15 15s6.709 15 15 15h90c8.291 0 15-6.709 15-15s-6.709-15-15-15z"/><path d="m316 331h-90c-8.291 0-15 6.709-15 15s6.709 15 15 15h90c8.291 0 15-6.709 15-15s-6.709-15-15-15z"/></g><g fill="#4b2746"><path d="m331 166c0-8.291-6.709-15-15-15h-90v30h90c8.291 0 15-6.709 15-15z"/><path d="m331 256c0-8.291-6.709-15-15-15h-90v30h90c8.291 0 15-6.709 15-15z"/><path d="m331 346c0-8.291-6.709-15-15-15h-90v30h90c8.291 0 15-6.709 15-15z"/></g><path d="m286 0h-60-60c-8.291 0-15 6.709-15 15v30c0 8.291 6.709 15 15 15h60 60c8.291 0 15-6.709 15-15v-30c0-8.291-6.709-15-15-15z" fill="#ff641a"/><path d="m301 45v-30c0-8.291-6.709-15-15-15h-60v60h60c8.291 0 15-6.709 15-15z" fill="#f03800"/><path d="m301 467c0-8.286-6.716-15-15-15h-60-211c-8.284 0-15 6.714-15 15v15c0 16.567 13.431 30 30 30h196 120c-24.901 0-45-20.101-45-45z" fill="#dfe7f4"/><path d="m301 467c0-8.286-6.716-15-15-15h-60v60h120c-24.901 0-45-20.101-45-45z" fill="#c7cfe1"/></g></svg>