<?xml version="1.0" encoding="UTF-8"?>
<svg width="50px" height="50px" viewBox="0 0 50 50" version="1.1" xmlns="http://www.w3.org/2000/svg" xmlns:xlink="http://www.w3.org/1999/xlink">
    <!-- Generator: Sketch 53 (72520) - https://sketchapp.com -->
    <title>7</title>
    <desc>Created with Sketch.</desc>
    <defs>
        <linearGradient x1="0.499999523%" y1="-4.63343348%" x2="0.499999523%" y2="101.499999%" id="linearGradient-1">
            <stop stop-color="#54A5F6" offset="0%"></stop>
            <stop stop-color="#1088EE" offset="100%"></stop>
        </linearGradient>
        <linearGradient x1="50%" y1="0%" x2="50%" y2="100%" id="linearGradient-2">
            <stop stop-color="#FE9F8F" offset="0%"></stop>
            <stop stop-color="#F54845" offset="100%"></stop>
        </linearGradient>
    </defs>
    <g id="Marshmello_landing-page" stroke="none" stroke-width="1" fill="none" fill-rule="evenodd">
        <g id="Marshmello_landngpage-Copy" transform="translate(-548.000000, -768.000000)">
            <g id="7" transform="translate(548.000000, 768.000000)">
                <polygon id="Path-6" fill="url(#linearGradient-1)" points="23 14.5341689 23 49 50 49 50 1"></polygon>
                <g id="032-file" transform="translate(25.000000, 25.000000) scale(-1, 1) translate(-25.000000, -25.000000) " fill="#1D125C" fill-rule="nonzero">
                    <path d="M24.2328644,0.571823145 C23.866272,0.205612207 23.3695984,0 22.8515625,0 L1.953125,0 C0.874328613,0 0,0.874328613 0,1.953125 L0,48.046875 C0,49.1256714 0.874328613,50 1.953125,50 L33.203125,50 C34.2819214,50 35.15625,49.1256714 35.15625,48.046875 L35.15625,12.3046875 C35.15625,11.7866516 34.9506378,11.289978 34.5844269,10.9233856 L24.2328644,0.571823145 Z M31.25,46.09375 L3.90625,46.09375 L3.90625,3.90625 L22.0424652,3.90625 L31.25,13.1137848 L31.25,46.09375 Z M24.9023438,39.1113281 C24.9023438,40.1901245 24.0280151,41.0644531 22.9492188,41.0644531 L12.2070313,41.0644531 C11.1282349,41.0644531 10.2539063,40.1901245 10.2539063,39.1113281 C10.2539063,38.0325317 11.1282349,37.1582031 12.2070313,37.1582031 L22.9492188,37.1582031 C24.0280151,37.1582031 24.9023438,38.0325317 24.9023438,39.1113281 Z M9.765625,28.2226563 L25.390625,28.2226563 C26.4694214,28.2226563 27.34375,29.0969849 27.34375,30.1757813 C27.34375,31.2545776 26.4694214,32.1289063 25.390625,32.1289063 L9.765625,32.1289063 C8.68682861,32.1289063 7.8125,31.2545776 7.8125,30.1757813 C7.8125,29.0969849 8.68682861,28.2226563 9.765625,28.2226563 Z M12.2070313,19.2871094 L22.9492188,19.2871094 C24.0280151,19.2871094 24.9023438,20.161438 24.9023438,21.2402344 C24.9023438,22.3190308 24.0280151,23.1933594 22.9492188,23.1933594 L12.2070313,23.1933594 C11.1282349,23.1933594 10.2539063,22.3190308 10.2539063,21.2402344 C10.2539063,20.161438 11.1282349,19.2871094 12.2070313,19.2871094 Z M48.046875,0 L40.625,0 C39.5462036,0 38.671875,0.874328613 38.671875,1.953125 L38.671875,40.625 C38.671875,40.9282685 38.7424469,41.2273407 38.8778687,41.4985656 L42.5888062,48.9204406 C43.3071137,50.3566742 45.3639984,50.3582001 46.0826874,48.9204406 L49.7936249,41.4985656 C49.9294281,41.2273407 50,40.9282685 50,40.625 L50,1.953125 C50,0.874328613 49.1256714,0 48.046875,0 L48.046875,0 Z M46.09375,40.1638031 L44.3359375,43.6794281 L42.578125,40.1638031 L42.578125,3.90625 L46.09375,3.90625 L46.09375,40.1638031 Z" id="Shape"></path>
                </g>
            </g>
        </g>
    </g>
</svg>