<?xml version="1.0" encoding="UTF-8"?>
<svg width="50px" height="50px" viewBox="0 0 50 50" version="1.1" xmlns="http://www.w3.org/2000/svg" xmlns:xlink="http://www.w3.org/1999/xlink">
    <!-- Generator: Sketch 53 (72520) - https://sketchapp.com -->
    <title>6</title>
    <desc>Created with Sketch.</desc>
    <defs>
        <linearGradient x1="0.499999523%" y1="-4.63343348%" x2="0.499999523%" y2="101.499999%" id="linearGradient-1">
            <stop stop-color="#54A5F6" offset="0%"></stop>
            <stop stop-color="#1088EE" offset="100%"></stop>
        </linearGradient>
    </defs>
    <g id="Marshmello_landing-page" stroke="none" stroke-width="1" fill="none" fill-rule="evenodd">
        <g id="Marshmello_landngpage-Copy" transform="translate(-929.000000, -760.000000)">
            <g id="6" transform="translate(929.000000, 760.000000)">
                <circle id="Oval-Copy-9" fill="url(#linearGradient-1)" cx="27.5" cy="28.5" r="21.5"></circle>
                <g id="047-sociology" transform="translate(25.000000, 25.000000) scale(-1, 1) translate(-25.000000, -25.000000) " fill="#1D125C" fill-rule="nonzero">
                    <path d="M25,0 C11.1831665,0 0,11.1812592 0,25 C0,38.8168335 11.1812592,50 25,50 C38.8168335,50 50,38.8187408 50,25 C50,11.1831665 38.8187408,0 25,0 Z M15.3347016,43.7591553 C13.911438,43.0240631 12.5679016,42.1222687 11.328125,41.0636902 L11.328125,30.3058624 C11.328125,27.1293641 13.912201,24.5449066 17.0886993,24.5441437 L17.0898438,24.5441437 L17.0909882,24.5441437 C18.3357238,24.5445252 19.5159912,24.9393463 20.4860687,25.6481171 C18.9098358,26.9508361 17.9035187,28.9199829 17.9035187,31.1195373 C17.9035187,32.9463959 18.5977936,34.6138 19.7357178,35.8726502 C17.1440125,37.561798 15.4083252,40.4590606 15.3347016,43.7591553 L15.3347016,43.7591553 Z M13.8996124,17.4480438 C13.8996124,15.6887055 15.3308868,14.2578125 17.0898437,14.2578125 C18.8488007,14.2578125 20.2800751,15.6887055 20.2800751,17.4480438 C20.2800751,19.2066192 18.8495636,20.6375122 17.0909882,20.6382752 C17.0906066,20.6382752 17.0902252,20.6382752 17.0898437,20.6382752 C17.0894623,20.6382752 17.0890809,20.6382752 17.0886993,20.6382752 C15.3301239,20.6371308 13.8996124,19.2066192 13.8996124,17.4480438 Z M30.7617188,45.300293 C28.9104462,45.8229064 26.9760132,46.09375 25,46.09375 C23.0239868,46.09375 21.0895538,45.8229064 19.2382813,45.300293 L19.2382813,43.9777374 C19.2382813,40.8012391 21.8223572,38.2167816 24.9988556,38.2160187 L25,38.2160187 L25.0011444,38.2160187 C28.1776428,38.2167816 30.7617188,40.8012391 30.7617188,43.9777374 L30.7617188,45.300293 Z M21.8097687,31.1199188 C21.8097687,29.3605805 23.2410431,27.9296875 25,27.9296875 C26.7589569,27.9296875 28.1902313,29.3605805 28.1902313,31.1199188 C28.1902313,32.8784942 26.7597198,34.3093872 25.0011444,34.3101502 C25.0007629,34.3101502 25.0003814,34.3101502 25,34.3101502 C24.9996186,34.3101502 24.9992371,34.3101502 24.9988556,34.3101502 C23.2402802,34.3090058 21.8097687,32.8784942 21.8097687,31.1199188 L21.8097687,31.1199188 Z M38.671875,41.0636902 C37.4320984,42.1222687 36.088562,43.0240631 34.6652984,43.7591553 C34.5916748,40.4590606 32.8559875,37.561798 30.2642822,35.8730316 C31.4022064,34.6138 32.0964813,32.9463959 32.0964813,31.1199188 C32.0964813,28.9199829 31.0901642,26.9508361 29.5139313,25.6484985 C30.4840088,24.9397277 31.6642762,24.5445252 32.9090118,24.5445252 L32.9101563,24.5445252 L32.9113007,24.5445252 C36.087799,24.5449066 38.671875,27.1293641 38.671875,30.3062439 L38.671875,41.0636902 Z M29.7199249,17.4480438 C29.7199249,15.6887055 31.1511993,14.2578125 32.9101563,14.2578125 C34.6691132,14.2578125 36.1003876,15.6887055 36.1003876,17.4480438 C36.1003876,19.2066192 34.6698761,20.6375122 32.9113007,20.6382752 C32.9109191,20.6382752 32.9105377,20.6382752 32.9101563,20.6382752 C32.9097748,20.6382752 32.9093934,20.6382752 32.9090118,20.6382752 C31.1504364,20.6375122 29.7199249,19.2066192 29.7199249,17.4480438 L29.7199249,17.4480438 Z M42.578125,36.6714478 L42.578125,30.3058624 C42.578125,26.9153595 40.8233643,23.9273071 38.1744385,22.2011566 C39.3123627,20.941925 40.0066376,19.2745209 40.0066376,17.4480438 C40.0066376,13.5349273 36.8228912,10.3515625 32.9101563,10.3515625 C28.9974213,10.3515625 25.8136749,13.5349273 25.8136749,17.4480438 C25.8136749,19.2718506 26.5060425,20.9365845 27.6405334,22.1950531 C26.8615723,22.7016449 26.1539459,23.3230591 25.541687,24.0463257 C25.3627777,24.0325928 25.1823426,24.0234375 25,24.0234375 C24.8176574,24.0234375 24.6372223,24.0325928 24.458313,24.0463257 C23.8460541,23.3230591 23.1384277,22.7016449 22.3594666,22.1950531 C23.4939575,20.9365845 24.1863251,19.2718506 24.1863251,17.4480438 C24.1863251,13.5349273 21.0025787,10.3515625 17.0898438,10.3515625 C13.1771088,10.3515625 9.9933624,13.5349273 9.9933624,17.4480438 C9.9933624,19.2745209 10.6876373,20.941925 11.8255615,22.2011566 C9.17663574,23.9273071 7.421875,26.9153595 7.421875,30.3058624 L7.421875,36.6714478 C5.13458252,33.242035 3.90625,29.215622 3.90625,25 C3.90625,13.3419037 13.3403778,3.90625 25,3.90625 C36.6580963,3.90625 46.09375,13.3403778 46.09375,25 C46.09375,29.215622 44.8654175,33.242035 42.578125,36.6714478 L42.578125,36.6714478 Z" id="Shape"></path>
                </g>
            </g>
        </g>
    </g>
</svg>