<?xml version="1.0" encoding="UTF-8"?>
<svg width="50px" height="53px" viewBox="0 0 50 53" version="1.1" xmlns="http://www.w3.org/2000/svg" xmlns:xlink="http://www.w3.org/1999/xlink">
    <!-- Generator: Sketch 53 (72520) - https://sketchapp.com -->
    <title>5</title>
    <desc>Created with Sketch.</desc>
    <defs>
        <linearGradient x1="0.499999523%" y1="-4.63343348%" x2="0.499999523%" y2="101.499999%" id="linearGradient-1">
            <stop stop-color="#54A5F6" offset="0%"></stop>
            <stop stop-color="#1088EE" offset="100%"></stop>
        </linearGradient>
        <linearGradient x1="50%" y1="0%" x2="50%" y2="100%" id="linearGradient-2">
            <stop stop-color="#FE9F8F" offset="0%"></stop>
            <stop stop-color="#F54845" offset="100%"></stop>
        </linearGradient>
    </defs>
    <g id="Marshmello_landing-page" stroke="none" stroke-width="1" fill="none" fill-rule="evenodd">
        <g id="Marshmello_landngpage-Copy" transform="translate(-164.000000, -986.000000)">
            <g id="5" transform="translate(164.000000, 986.000000)">
                <polygon id="Path-8" fill="url(#linearGradient-1)" points="8 19 8 53 50 53 50 19"></polygon>
                <g id="012-blog" transform="translate(25.000000, 25.000000) scale(-1, 1) translate(-25.000000, -25.000000) " fill="#1D125C" fill-rule="nonzero">
                    <path d="M48.046875,0 L1.953125,0 C0.874328613,0 0,0.874328613 0,1.953125 L0,48.046875 C0,49.1256714 0.874328613,50 1.953125,50 L48.046875,50 C49.1256714,50 50,49.1256714 50,48.046875 C50,45.9518433 50,2.72674561 50,1.953125 C50,0.874328613 49.1256714,0 48.046875,0 Z M46.09375,46.09375 L3.90625,46.09375 L3.90625,12.3046875 L46.09375,12.3046875 L46.09375,46.09375 Z M46.09375,8.3984375 L3.90625,8.3984375 L3.90625,3.90625 L46.09375,3.90625 L46.09375,8.3984375 Z M9.08203125,38.9648438 L25.4081727,38.9648438 C26.4869689,38.9648438 27.3612977,38.0905151 27.3612977,37.0117188 L27.3612977,21.3867188 C27.3612977,20.3079224 26.4869689,19.4335938 25.4081727,19.4335938 L9.08203125,19.4335938 C8.00323486,19.4335938 7.12890625,20.3079224 7.12890625,21.3867188 L7.12890625,37.0117188 C7.12890625,38.0905151 8.00323486,38.9648438 9.08203125,38.9648438 Z M11.0351563,23.3398438 L23.4550477,23.3398438 L23.4550477,35.0585938 L11.0351563,35.0585938 L11.0351563,23.3398438 Z M31.8222046,29.1992188 C31.8222046,28.1204224 32.6965332,27.2460938 33.7753296,27.2460938 L40.9179688,27.2460938 C41.9967651,27.2460938 42.8710938,28.1204224 42.8710938,29.1992188 C42.8710938,30.2780151 41.9967651,31.1523438 40.9179688,31.1523438 L33.7753296,31.1523438 C32.6965332,31.1523438 31.8222046,30.2780151 31.8222046,29.1992188 Z M31.8222046,37.0117188 C31.8222046,35.9329224 32.6965332,35.0585938 33.7753296,35.0585938 L40.9179688,35.0585938 C41.9967651,35.0585938 42.8710938,35.9329224 42.8710938,37.0117188 C42.8710938,38.0905151 41.9967651,38.9648438 40.9179688,38.9648438 L33.7753296,38.9648438 C32.6965332,38.9648438 31.8222046,38.0905151 31.8222046,37.0117188 Z" id="Shape"></path>
                </g>
            </g>
        </g>
    </g>
</svg>