<?xml version="1.0" encoding="UTF-8"?>
<svg width="50px" height="51px" viewBox="0 0 50 51" version="1.1" xmlns="http://www.w3.org/2000/svg" xmlns:xlink="http://www.w3.org/1999/xlink">
    <!-- Generator: Sketch 53 (72520) - https://sketchapp.com -->
    <title>4</title>
    <desc>Created with Sketch.</desc>
    <defs>
        <linearGradient x1="0.499999523%" y1="-4.63343348%" x2="0.499999523%" y2="101.499999%" id="linearGradient-1">
            <stop stop-color="#54A5F6" offset="0%"></stop>
            <stop stop-color="#1088EE" offset="100%"></stop>
        </linearGradient>
        <linearGradient x1="50%" y1="0%" x2="50%" y2="100%" id="linearGradient-2">
            <stop stop-color="#FE9F8F" offset="0%"></stop>
            <stop stop-color="#F54845" offset="100%"></stop>
        </linearGradient>
    </defs>
    <g id="Marshmello_landing-page" stroke="none" stroke-width="1" fill="none" fill-rule="evenodd">
        <g id="Marshmello_landngpage-Copy" transform="translate(-548.000000, -988.000000)">
            <g id="4" transform="translate(548.000000, 988.000000)">
                <polygon id="Path-9" fill="url(#linearGradient-1)" points="11 11 11 51 50 51 50 9 11 9"></polygon>
                <g id="024-video-player" transform="translate(25.000000, 25.000000) scale(-1, 1) translate(-25.000000, -25.000000) " fill="#1D125C" fill-rule="nonzero">
                    <path d="M48.046875,0 L1.953125,0 C0.874328613,0 0,0.874328613 0,1.953125 L0,48.046875 C0,49.1256714 0.874328613,50 1.953125,50 L48.046875,50 C49.1256714,50 50,49.1256714 50,48.046875 L50,1.953125 C50,0.874328613 49.1256714,0 48.046875,0 Z M46.09375,46.09375 L3.90625,46.09375 L3.90625,3.90625 L46.09375,3.90625 L46.09375,46.09375 Z M15.7516479,25.9765625 C15.7516479,27.0553589 16.6259766,27.9296875 17.7047729,27.9296875 L32.2952271,27.9296875 C33.3740234,27.9296875 34.2483521,27.0553589 34.2483521,25.9765625 C34.2483521,22.7867127 32.6251983,19.9691772 30.1616669,18.3059692 C31.2416076,17.0875549 31.8992615,15.4872895 31.8992615,13.735199 C31.8992615,9.93080137 28.8040161,6.8359375 25,6.8359375 C21.1959839,6.8359375 18.1007385,9.93080137 18.1007385,13.735199 C18.1007385,15.4872895 18.7583924,17.0875549 19.8383331,18.3059692 C17.3744201,19.9691772 15.7516479,22.7867127 15.7516479,25.9765625 L15.7516479,25.9765625 Z M25,10.7421875 C26.6502381,10.7421875 27.9930115,12.0845795 27.9930115,13.735199 C27.9930115,15.385437 26.6502381,16.7282104 25,16.7282104 C23.3497619,16.7282104 22.0069885,15.385437 22.0069885,13.735199 C22.0069885,12.0849609 23.3497619,10.7421875 25,10.7421875 Z M25,20.6344604 C27.2567749,20.6344604 29.1912079,22.0409394 29.9728394,24.0234375 L20.0271606,24.0234375 C20.8087921,22.0409394 22.7432251,20.6344604 25,20.6344604 Z M7.421875,36.9140625 C7.421875,35.8352661 8.29620361,34.9609375 9.375,34.9609375 L14.84375,34.9609375 L14.84375,33.203125 C14.84375,32.1243286 15.7180786,31.25 16.796875,31.25 C17.8756714,31.25 18.75,32.1243286 18.75,33.203125 L18.75,34.9609375 L40.625,34.9609375 C41.7037964,34.9609375 42.578125,35.8352661 42.578125,36.9140625 C42.578125,37.9928589 41.7037964,38.8671875 40.625,38.8671875 L18.75,38.8671875 L18.75,40.625 C18.75,41.7037964 17.8756714,42.578125 16.796875,42.578125 C15.7180786,42.578125 14.84375,41.7037964 14.84375,40.625 L14.84375,38.8671875 L9.375,38.8671875 C8.29620361,38.8671875 7.421875,37.9928589 7.421875,36.9140625 Z" id="Shape"></path>
                </g>
            </g>
        </g>
    </g>
</svg>