<?xml version="1.0" encoding="UTF-8"?>
<svg width="50px" height="50px" viewBox="0 0 50 50" version="1.1" xmlns="http://www.w3.org/2000/svg" xmlns:xlink="http://www.w3.org/1999/xlink">
    <!-- Generator: Sketch 53 (72520) - https://sketchapp.com -->
    <title>8</title>
    <desc>Created with Sketch.</desc>
    <defs>
        <linearGradient x1="0.499999523%" y1="-4.63343348%" x2="0.499999523%" y2="101.499999%" id="linearGradient-1">
            <stop stop-color="#54A5F6" offset="0%"></stop>
            <stop stop-color="#1088EE" offset="100%"></stop>
        </linearGradient>
    </defs>
    <g id="Marshmello_landing-page" stroke="none" stroke-width="1" fill="none" fill-rule="evenodd">
        <g id="Marshmello_landngpage-Copy" transform="translate(-164.000000, -754.000000)">
            <g id="8" transform="translate(164.000000, 754.000000)">
                <circle id="Oval" fill="url(#linearGradient-1)" cx="28.5" cy="25.5" r="21.5"></circle>
                <g id="005-analytics" transform="translate(25.000000, 25.000000) scale(-1, 1) translate(-25.000000, -25.000000) " fill="#1D125C" fill-rule="nonzero">
                    <path d="M25,0 C11.1831665,0 0,11.1812592 0,25 C0,38.8168335 11.1812592,50 25,50 C38.8168335,50 50,38.8187408 50,25 C50,11.1831665 38.8187408,0 25,0 Z M37.6953125,41.8487549 L37.6953125,28.90625 C37.6953125,27.8274536 36.8209839,26.953125 35.7421875,26.953125 C34.6633911,26.953125 33.7890625,27.8274536 33.7890625,28.90625 L33.7890625,44.1860199 C31.6459656,45.1690674 29.3418885,45.7859039 26.953125,46.0037231 L26.953125,31.8359375 C26.953125,30.7571411 26.0787964,29.8828125 25,29.8828125 C23.9212036,29.8828125 23.046875,30.7571411 23.046875,31.8359375 L23.046875,46.0037231 C20.6581115,45.7859039 18.3540344,45.1690674 16.2109375,44.1860199 L16.2109375,31.8359375 C16.2109375,30.7571411 15.3366089,29.8828125 14.2578125,29.8828125 C13.1790161,29.8828125 12.3046875,30.7571411 12.3046875,31.8359375 L12.3046875,41.8487549 C9.06600957,39.3981934 6.50939941,36.0218048 5.10292051,32.0343018 L10.1840973,26.953125 L25,26.953125 C25.5180359,26.953125 26.0147095,26.7475128 26.3813019,26.3809204 L33.7890625,18.9731598 L33.7890625,22.0703125 C33.7890625,23.1491089 34.6633911,24.0234375 35.7421875,24.0234375 C36.8209839,24.0234375 37.6953125,23.1491089 37.6953125,22.0703125 L37.6953125,14.2578125 C37.6953125,13.1847382 36.8164063,12.3046875 35.7421875,12.3046875 L27.9296875,12.3046875 C26.8508911,12.3046875 25.9765625,13.1790161 25.9765625,14.2578125 C25.9765625,15.3366089 26.8508911,16.2109375 27.9296875,16.2109375 L31.0268402,16.2109375 L24.1909027,23.046875 L9.375,23.046875 C8.85696406,23.046875 8.36029053,23.2524872 7.99369814,23.6190796 L4.05883789,27.5539398 C3.95812988,26.712799 3.90625,25.8602143 3.90625,25 C3.90625,13.3419037 13.3403778,3.90625 25,3.90625 C36.6580963,3.90625 46.09375,13.3403778 46.09375,25 C46.09375,31.7955018 42.9046631,37.9066467 37.6953125,41.8487549 Z" id="Shape"></path>
                </g>
            </g>
        </g>
    </g>
</svg>