<?xml version="1.0" encoding="UTF-8"?>
<svg width="50px" height="50px" viewBox="0 0 50 50" version="1.1" xmlns="http://www.w3.org/2000/svg" xmlns:xlink="http://www.w3.org/1999/xlink">
    <!-- Generator: Sketch 53 (72520) - https://sketchapp.com -->
    <title>3</title>
    <desc>Created with Sketch.</desc>
    <defs>
        <linearGradient x1="0.499999523%" y1="-4.63343348%" x2="0.499999523%" y2="101.499999%" id="linearGradient-1">
            <stop stop-color="#54A5F6" offset="0%"></stop>
            <stop stop-color="#1088EE" offset="100%"></stop>
        </linearGradient>
    </defs>
    <g id="Marshmello_landing-page" stroke="none" stroke-width="1" fill="none" fill-rule="evenodd">
        <g id="Marshmello_landngpage-Copy" transform="translate(-924.000000, -988.000000)">
            <g id="3" transform="translate(924.000000, 988.000000)">
                <polygon id="Path-10" fill="url(#linearGradient-1)" points="30.4790875 35.5169821 16 36 16 13 50 13 50 36"></polygon>
                <g id="033-monitor" fill="#1D125C" fill-rule="nonzero">
                    <path d="M48.046875,0 L1.953125,0 C0.874328613,0 0,0.874328613 0,1.953125 L0,38.0859375 C0,39.1647339 0.874328613,40.0390625 1.953125,40.0390625 L16.6034698,40.0390625 L11.8663788,46.9417572 C10.9779357,48.236084 11.9071961,50 13.4765625,50 L36.5234375,50 C38.0931854,50 39.0220643,48.2357025 38.1336212,46.9417572 L33.3965302,40.0390625 L48.046875,40.0390625 C49.1256714,40.0390625 50,39.1647339 50,38.0859375 L50,1.953125 C50,0.874328613 49.1256714,0 48.046875,0 Z M17.1855927,46.09375 L21.3409424,40.0390625 L28.6590576,40.0390625 L32.8144073,46.09375 L17.1855927,46.09375 Z M46.09375,36.1328125 C44.8688507,36.1328125 5.13000488,36.1328125 3.90625,36.1328125 L3.90625,3.90625 L46.09375,3.90625 L46.09375,36.1328125 Z M7.50579834,14.2391205 C6.74285889,13.4761811 6.74285889,12.2398377 7.50579834,11.4768982 C8.26835635,10.7143402 9.50508115,10.7143402 10.2676392,11.4768982 L12.5976563,13.8069152 L18.8339233,7.57064824 C19.5964813,6.80809023 20.8332062,6.80809023 21.5957642,7.57064824 C22.3587036,8.3335877 22.3587036,9.56993105 21.5957642,10.3328705 L13.9785767,17.950058 C13.2160187,18.712616 11.9792938,18.712616 11.2167358,17.950058 L7.50579834,14.2391205 Z M7.50579834,28.7574768 C6.74285889,27.9945373 6.74285889,26.7581939 7.50579834,25.9952545 C8.26835635,25.2326965 9.50508115,25.2326965 10.2676392,25.9952545 L12.5976563,28.3252716 L18.8339233,22.0890045 C19.5964813,21.326065 20.8332062,21.326065 21.5957642,22.0890045 C22.3587036,22.8519439 22.3587036,24.0882873 21.5957642,24.8512268 L13.9785767,32.4684143 C13.2160187,33.2309723 11.9792938,33.2309723 11.2167358,32.4684143 L7.50579834,28.7574768 Z M25.4882813,12.7605438 C25.4882813,11.6817475 26.3626099,10.8074188 27.4414063,10.8074188 L41.1132813,10.8074188 C42.1920776,10.8074188 43.0664063,11.6817475 43.0664063,12.7605438 C43.0664063,13.8393402 42.1920776,14.7136688 41.1132813,14.7136688 L27.4414063,14.7136688 C26.3626099,14.7136688 25.4882813,13.8389588 25.4882813,12.7605438 Z M25.4882813,27.2785187 C25.4882813,26.1997223 26.3626099,25.3253937 27.4414063,25.3253937 L41.1132813,25.3253937 C42.1920776,25.3253937 43.0664063,26.1997223 43.0664063,27.2785187 C43.0664063,28.357315 42.1920776,29.2316437 41.1132813,29.2316437 L27.4414063,29.2316437 C26.3626099,29.2316437 25.4882813,28.357315 25.4882813,27.2785187 Z" id="Shape"></path>
                </g>
            </g>
        </g>
    </g>
</svg>