<?xml version="1.0"?>
<svg xmlns="http://www.w3.org/2000/svg" xmlns:xlink="http://www.w3.org/1999/xlink" version="1.1" id="Capa_1" x="0px" y="0px" viewBox="0 0 512.002 512.002" style="enable-background:new 0 0 512.002 512.002;" xml:space="preserve" width="512px" height="512px" class=""><g><g>
	<g>
		<path d="M459.666,293.504c-3.488,0-6.976,0.461-10.371,1.37c-3.527,0.945-6.857,2.338-9.951,4.161l-36.201-13.78    c1.898-9.604,2.857-19.408,2.857-29.254c0-29.76-8.566-58.182-24.852-82.725l55.311-55.311c5.045,1.351,10.248,2.034,15.543,2.034    c33.084,0,60-26.916,60-60c0-33.083-26.916-59.998-60-59.998s-60,26.915-60,59.998c0,5.293,0.682,10.496,2.031,15.54    l-55.311,55.311c-13.178-8.745-27.48-15.24-42.5-19.401l7.123-34.328c6.48-0.868,12.469-3.81,17.174-8.512    c11.693-11.696,11.693-30.728-0.002-42.426c-5.668-5.666-13.201-8.786-21.213-8.786c-8.014,0-15.547,3.121-21.211,8.786    c-5.668,5.666-8.789,13.2-8.789,21.214c0,8.013,3.121,15.547,8.787,21.212c1.729,1.729,3.633,3.218,5.67,4.457l-7.129,34.349    c-6.783-0.927-13.67-1.415-20.633-1.415c-39.426,0-77.295,15.62-105.258,43.143l-70.79-51.13    C78.914,76.875,61.391,59.999,40,59.999c-22.057,0-40,17.943-40,39.999c0,22.057,17.943,40.001,40,40.001    c3.652,0,7.229-0.484,10.688-1.444l70.754,51.103c-10.125,20.533-15.443,43.286-15.443,66.342c0,12.729,1.639,25.295,4.771,37.419    l-33.357,11.016c-3.992-5.179-9.535-8.895-15.957-10.615c-2.543-0.682-5.16-1.027-7.777-1.027    c-13.547,0-25.457,9.146-28.965,22.241c-4.281,15.978,5.234,32.46,21.211,36.742c2.545,0.682,5.162,1.028,7.779,1.028    c13.547,0,25.457-9.146,28.965-22.24c0.635-2.362,0.971-4.756,1.025-7.14l33.352-11.015c7.35,18.089,18.205,34.732,32.098,48.847    l-51.129,70.791C76.877,433.086,60,450.609,60,472c0,22.056,17.943,40.001,40.002,40.001C122.057,512.001,140,494.056,140,472    c0-3.652-0.484-7.229-1.443-10.689l51.1-70.754c20.535,10.127,43.289,15.444,66.344,15.444c26.473,0,51.748-6.857,73.805-19.302    l30.174,45.983c-3.844,5.043-6.133,11.331-6.133,18.147c0,16.542,13.459,29.999,30.004,29.999    c16.541,0,29.998-13.457,29.998-29.999s-13.457-29.999-29.998-29.999c-2.467,0-4.861,0.305-7.156,0.869l-30.166-45.968    c15.443-11.693,28.691-26.457,38.834-43.746l36.213,13.784c5.287,16.437,20.662,27.751,38.057,27.749    c3.49,0,6.979-0.461,10.371-1.371c10.32-2.765,18.945-9.383,24.289-18.636c5.342-9.253,6.76-20.033,3.994-30.353    C493.605,305.698,477.725,293.504,459.666,293.504z M63.35,325.387c-1.17,4.367-5.137,7.417-9.647,7.417    c-0.869,0-1.744-0.116-2.601-0.346c-5.326-1.427-8.498-6.922-7.07-12.249c1.17-4.366,5.137-7.416,9.646-7.416    c0.869,0,1.744,0.116,2.602,0.346c2.58,0.691,4.736,2.346,6.072,4.66C63.688,320.111,64.041,322.806,63.35,325.387z     M383.85,440.829c5.513,0,9.998,4.485,9.998,9.999c0,5.514-4.484,9.999-9.998,9.999c-5.516,0-10.004-4.486-10.004-9.999    C373.846,445.314,378.334,440.829,383.85,440.829z M292.236,40.322c1.887-1.888,4.397-2.928,7.068-2.928    c2.67,0,5.182,1.041,7.07,2.928c3.898,3.899,3.898,10.244,0.002,14.142c-1.891,1.889-4.402,2.93-7.072,2.93    c-2.672,0-5.182-1.04-7.07-2.93c-1.891-1.889-2.93-4.4-2.93-7.07C289.305,44.724,290.344,42.212,292.236,40.322z M476.971,343.511    c-2.672,4.626-6.984,7.935-12.145,9.318c-1.705,0.457-3.453,0.689-5.195,0.689c-9.023,0.001-16.959-6.098-19.295-14.807    c-0.184-0.693-0.33-1.376-0.438-2.032c-0.574-3.52-2.979-6.468-6.313-7.737l-49.248-18.746    c-4.773-1.818-10.145,0.253-12.465,4.801c-10.359,20.304-25.465,37.034-43.578,49.149c-0.328,0.167-0.65,0.349-0.965,0.555    c-0.305,0.2-0.592,0.415-0.867,0.64c-20.576,13.264-44.873,20.66-70.463,20.66c-22.605,0-44.871-5.894-64.389-17.044    c-4.439-2.538-10.074-1.316-13.066,2.828l-59.275,82.072c-2.094,2.897-2.48,6.691-1.018,9.951c1.16,2.581,1.748,5.337,1.748,8.192    c0,11.028-8.971,20.001-19.998,20.001c-11.029,0-20.002-8.972-20.002-20.001c0.001-11.029,8.974-20.001,20.003-20.001    c0.674,0,1.359,0.035,2.041,0.104c3.543,0.358,7.023-1.2,9.113-4.094l59.297-82.099c2.99-4.14,2.381-9.868-1.414-13.286    c-27.354-24.632-43.041-59.851-43.041-96.624c0-22.608,5.895-44.873,17.045-64.387c2.535-4.438,1.316-10.075-2.828-13.067    l-82.074-59.278c-2.896-2.092-6.691-2.479-9.953-1.015c-2.581,1.159-5.334,1.746-8.188,1.746c-11.027,0-20-8.973-20-20.001    c0-11.027,8.973-19.999,20-19.999s20,8.972,20,19.999c0,0.679-0.035,1.367-0.104,2.044c-0.359,3.551,1.201,7.025,4.094,9.115    l82.1,59.293c4.139,2.99,9.867,2.379,13.285-1.415c24.631-27.352,59.85-43.038,96.625-43.038c8.867,0,17.598,0.878,26.1,2.603    c0.111,0.027,0.219,0.063,0.332,0.086c0.061,0.012,0.119,0.017,0.18,0.028c18.465,3.823,35.852,11.639,51.238,23.161    c3.98,2.981,9.549,2.585,13.064-0.934l65.6-65.601c2.813-2.812,3.691-7.021,2.238-10.723c-1.824-4.652-2.75-9.571-2.75-14.62    c0-22.055,17.943-39.998,40-39.998c22.055,0,40,17.943,40,39.998c0,22.056-17.945,40-40,40c-5.049,0-9.969-0.926-14.621-2.753    c-3.701-1.452-7.912-0.574-10.725,2.238l-65.602,65.603c-3.516,3.517-3.914,9.084-0.932,13.065    C377.051,200.754,386,227.674,386,256c0,11.162-1.42,22.257-4.221,32.978c-1.291,4.939,1.348,10.057,6.117,11.873l49.238,18.742    c3.342,1.273,7.105,0.665,9.875-1.594c2.193-1.788,4.705-3.069,7.461-3.807c1.707-0.457,3.455-0.689,5.195-0.689    c9.024,0,16.961,6.099,19.301,14.832C480.35,333.496,479.641,338.885,476.971,343.511z" data-original="#000000" class="active-path" data-old_color="#000000" fill="#0000FF"/>
	</g>
</g><g>
	<g>
		<path d="M214.66,164.398c-2.76-4.782-8.873-6.422-13.66-3.661c-23.568,13.606-41.186,35.353-49.605,61.235    c-1.709,5.252,1.164,10.895,6.416,12.603c1.027,0.334,2.07,0.494,3.096,0.494c4.213,0,8.133-2.685,9.508-6.909    c6.888-21.178,21.302-38.971,40.585-50.102C215.783,175.297,217.422,169.181,214.66,164.398z" data-original="#000000" class="active-path" data-old_color="#000000" fill="#0000FF"/>
	</g>
</g><g>
	<g>
		<path d="M156,245.674c-5.521,0-10,4.477-10,10V256c0,5.523,4.479,10,10,10c5.523,0,10-4.477,10-10v-0.326    C166,250.151,161.523,245.674,156,245.674z" data-original="#000000" class="active-path" data-old_color="#000000" fill="#0000FF"/>
	</g>
</g><g>
	<g>
		<path d="M354.185,277.422c-5.254-1.71-10.896,1.167-12.601,6.418c-6.885,21.173-21.297,38.965-40.584,50.099    c-4.781,2.761-6.422,8.877-3.66,13.66c1.852,3.208,5.213,5.002,8.67,5.002c1.697,0,3.416-0.432,4.99-1.341    c23.574-13.609,41.19-35.357,49.603-61.237C362.31,284.772,359.438,279.13,354.185,277.422z" data-original="#000000" class="active-path" data-old_color="#000000" fill="#0000FF"/>
	</g>
</g><g>
	<g>
		<path d="M356.002,246c-5.524,0-10,4.477-10,10v0.321c0,5.523,4.476,10,10,10c5.521,0,10-4.477,10-10V256    C366.002,250.477,361.523,246,356.002,246z" data-original="#000000" class="active-path" data-old_color="#000000" fill="#0000FF"/>
	</g>
</g><g>
	<g>
		<path d="M284.756,181.864c-22.055,0-39.998,17.944-39.998,40.001c0,22.056,17.943,40.001,39.998,40.001    c22.057,0,40.002-17.945,40.002-40.001C324.758,199.808,306.813,181.864,284.756,181.864z M284.756,241.866    c-11.027,0-19.998-8.972-19.998-20.001c0-11.029,8.971-20.001,19.998-20.001c11.029,0,20.002,8.972,20.002,20.001    C304.758,232.894,295.785,241.866,284.756,241.866z" data-original="#000000" class="active-path" data-old_color="#000000" fill="#0000FF"/>
	</g>
</g><g>
	<g>
		<path d="M217.244,270.131c-16.543,0-30,13.458-30,29.999c0,16.542,13.457,30,30,30c16.543,0,30-13.457,30-30    C247.244,283.589,233.787,270.131,217.244,270.131z M217.244,310.13c-5.514,0-10-4.486-10-10c0-5.514,4.486-9.999,10-9.999    s10,4.485,10,9.999S222.758,310.13,217.244,310.13z" data-original="#000000" class="active-path" data-old_color="#000000" fill="#0000FF"/>
	</g>
</g></g> </svg>
