<?xml version="1.0" encoding="UTF-8"?>
<svg width="243px" height="28px" viewBox="0 0 243 28" version="1.1" xmlns="http://www.w3.org/2000/svg" xmlns:xlink="http://www.w3.org/1999/xlink">
    <!-- Generator: Sketch 55.2 (78181) - https://sketchapp.com -->
    <title>Marshmallow.</title>
    <desc>Created with Sketch.</desc>
    <g id="Marshmello_landing-page" stroke="none" stroke-width="1" fill="none" fill-rule="evenodd">
        <path d="M1.774,27 C1.5273321,27 1.31766753,26.9136675 1.145,26.741 C0.97233247,26.5683325 0.886,26.3586679 0.886,26.112 L0.886,2.025 C0.886,1.75366531 0.966165865,1.53166753 1.1265,1.359 C1.28683414,1.18633247 1.50266531,1.1 1.774,1.1 L4.771,1.1 C5.23966901,1.1 5.60966531,1.33433099 5.881,1.803 L13.022,15.049 L20.163,1.803 C20.4343347,1.33433099 20.804331,1.1 21.273,1.1 L24.233,1.1 C24.5043347,1.1 24.7263325,1.18633247 24.899,1.359 C25.0716675,1.53166753 25.158,1.75366531 25.158,2.025 L25.158,26.112 C25.158,26.3833347 25.0716675,26.5991659 24.899,26.7595 C24.7263325,26.9198341 24.5043347,27 24.233,27 L21.051,27 C20.8043321,27 20.5946675,26.9136675 20.422,26.741 C20.2493325,26.5683325 20.163,26.3586679 20.163,26.112 L20.163,10.202 L15.02,19.97 C14.7486653,20.5126694 14.3416694,20.784 13.799,20.784 L12.245,20.784 C11.7269974,20.784 11.3076683,20.5126694 10.987,19.97 L5.844,10.202 L5.844,26.112 C5.844,26.3586679 5.76383413,26.5683325 5.6035,26.741 C5.44316586,26.9136675 5.22733469,27 4.956,27 L1.774,27 Z M36.073,27.37 C34.8149937,27.37 33.6618386,27.1171692 32.6135,26.6115 C31.5651614,26.1058308 30.7388364,25.4213377 30.1345,24.558 C29.5301636,23.6946624 29.228,22.7450052 29.228,21.709 C29.228,20.0316583 29.9063266,18.6750052 31.263,17.639 C32.6196735,16.6029948 34.4819882,15.9000019 36.85,15.53 L41.919,14.79 L41.919,14.013 C41.919,12.952328 41.6476694,12.1506694 41.105,11.608 C40.5623306,11.0653306 39.6990059,10.794 38.515,10.794 C37.7009959,10.794 37.0473358,10.9419985 36.554,11.238 C36.0606642,11.5340015 35.6598349,11.8361651 35.3515,12.1445 L34.741,12.755 C34.6423328,13.0510015 34.4573347,13.199 34.186,13.199 L31.3,13.199 C31.0779989,13.199 30.8868341,13.1250007 30.7265,12.977 C30.5661659,12.8289993 30.486,12.6316679 30.486,12.385 C30.5106668,11.7683303 30.8128304,11.0715039 31.3925,10.2945 C31.9721696,9.51749612 32.8663273,8.83916956 34.075,8.2595 C35.2836727,7.67983044 36.7759911,7.39 38.552,7.39 C41.4626812,7.39 43.5839933,8.04366013 44.916,9.351 C46.2480067,10.6583399 46.914,12.3726561 46.914,14.494 L46.914,26.112 C46.914,26.3586679 46.8338341,26.5683325 46.6735,26.741 C46.5131659,26.9136675 46.2973347,27 46.026,27 L42.955,27 C42.7083321,27 42.4986675,26.9136675 42.326,26.741 C42.1533325,26.5683325 42.067,26.3586679 42.067,26.112 L42.067,24.669 C41.5243306,25.4583373 40.7596716,26.1058308 39.773,26.6115 C38.7863284,27.1171692 37.5530074,27.37 36.073,27.37 Z M37.331,23.818 C38.6876735,23.818 39.7976623,23.3740044 40.661,22.486 C41.5243377,21.5979956 41.956,20.3153417 41.956,18.638 L41.956,17.898 L38.256,18.49 C35.4193192,18.9340022 34.001,19.8836594 34.001,21.339 C34.001,22.1283373 34.3278301,22.7388312 34.9815,23.1705 C35.6351699,23.6021688 36.4183288,23.818 37.331,23.818 Z M52.538,27 C52.2913321,27 52.0816675,26.9136675 51.909,26.741 C51.7363325,26.5683325 51.65,26.3586679 51.65,26.112 L51.65,8.685 C51.65,8.41366531 51.7363325,8.19166753 51.909,8.019 C52.0816675,7.84633247 52.2913321,7.76 52.538,7.76 L55.572,7.76 C55.8433347,7.76 56.0653325,7.84633247 56.238,8.019 C56.4106675,8.19166753 56.497,8.41366531 56.497,8.685 L56.497,10.202 C57.7303395,8.57399186 59.5063217,7.76 61.825,7.76 L63.379,7.76 C63.6503347,7.76 63.8661659,7.84016587 64.0265,8.0005 C64.1868341,8.16083414 64.267,8.37666531 64.267,8.648 L64.267,11.349 C64.267,11.5956679 64.1868341,11.8053325 64.0265,11.978 C63.8661659,12.1506675 63.6503347,12.237 63.379,12.237 L60.456,12.237 C59.2966609,12.237 58.3840033,12.5699967 57.718,13.236 C57.0519967,13.9020033 56.719,14.8146609 56.719,15.974 L56.719,26.112 C56.719,26.3586679 56.6326675,26.5683325 56.46,26.741 C56.2873325,26.9136675 56.0776679,27 55.831,27 L52.538,27 Z M74.479,27.37 C72.604324,27.37 71.0380063,27.0863362 69.78,26.519 C68.5219937,25.9516638 67.5908364,25.2918371 66.9865,24.5395 C66.3821636,23.7871629 66.08,23.1396694 66.08,22.597 C66.08,22.3503321 66.1601659,22.1530007 66.3205,22.005 C66.4808341,21.8569993 66.6719989,21.783 66.894,21.783 L69.928,21.783 C70.1253343,21.783 70.2979993,21.8816657 70.446,22.079 C70.5693339,22.1776672 70.8468312,22.4119982 71.2785,22.782 C71.7101688,23.1520019 72.2034972,23.4418323 72.7585,23.6515 C73.3135028,23.8611677 73.9239967,23.966 74.59,23.966 C75.5766716,23.966 76.3783303,23.7748352 76.995,23.3925 C77.6116698,23.0101648 77.92,22.4613369 77.92,21.746 C77.92,21.2526642 77.7781681,20.8518349 77.4945,20.5435 C77.2108319,20.2351651 76.7051703,19.9515013 75.9775,19.6925 C75.2498297,19.4334987 74.1583406,19.1436683 72.703,18.823 C70.6063228,18.3789978 69.058505,17.7006712 68.0595,16.788 C67.060495,15.8753288 66.561,14.6666742 66.561,13.162 C66.561,12.1753284 66.856997,11.244171 67.449,10.3685 C68.041003,9.49282896 68.9228275,8.77750277 70.0945,8.2225 C71.2661725,7.66749723 72.6659919,7.39 74.294,7.39 C75.9713417,7.39 77.4143273,7.65516401 78.623,8.1855 C79.8316727,8.71583599 80.7504969,9.3509963 81.3795,10.091 C82.0085031,10.8310037 82.323,11.4846638 82.323,12.052 C82.323,12.2740011 82.2428341,12.4651659 82.0825,12.6255 C81.9221659,12.7858341 81.7310011,12.866 81.509,12.866 L78.734,12.866 C78.4626653,12.866 78.2530007,12.7673343 78.105,12.57 C77.9323325,12.4466661 77.6548352,12.2185017 77.2725,11.8855 C76.8901648,11.5524983 76.464669,11.2873343 75.996,11.09 C75.527331,10.8926657 74.9600033,10.794 74.294,10.794 C73.3813288,10.794 72.6783358,10.9913314 72.185,11.386 C71.6916642,11.7806686 71.445,12.2986635 71.445,12.94 C71.445,13.3840022 71.5621655,13.7539985 71.7965,14.05 C72.0308345,14.3460015 72.5056631,14.6234987 73.221,14.8825 C73.9363369,15.1415013 75.0093262,15.4066653 76.44,15.678 C80.8800222,16.5413377 83.1,18.4776516 83.1,21.487 C83.1,23.2383421 82.3415076,24.6566612 80.8245,25.742 C79.3074924,26.8273388 77.1923469,27.37 74.479,27.37 Z M87.799,27 C87.5523321,27 87.3426675,26.9136675 87.17,26.741 C86.9973325,26.5683325 86.911,26.3586679 86.911,26.112 L86.911,1.618 C86.911,1.34666531 86.9973325,1.13083414 87.17,0.9705 C87.3426675,0.810165865 87.5523321,0.73 87.799,0.73 L91.166,0.73 C91.4373347,0.73 91.6531659,0.810165865 91.8135,0.9705 C91.9738341,1.13083414 92.054,1.34666531 92.054,1.618 L92.054,10.054 C93.5340074,8.27799112 95.5196542,7.39 98.011,7.39 C100.280345,7.39 102.093327,8.13615921 103.45,9.6285 C104.806673,11.1208408 105.485,13.1496538 105.485,15.715 L105.485,26.112 C105.485,26.3586679 105.404834,26.5683325 105.2445,26.741 C105.084166,26.9136675 104.868335,27 104.597,27 L101.23,27 C100.958665,27 100.736668,26.9136675 100.564,26.741 C100.391332,26.5683325 100.305,26.3586679 100.305,26.112 L100.305,15.937 C100.305,14.5063262 99.9535035,13.3901707 99.2505,12.5885 C98.5474965,11.7868293 97.5423399,11.386 96.235,11.386 C94.9769937,11.386 93.9656705,11.7929959 93.201,12.607 C92.4363295,13.4210041 92.054,14.530993 92.054,15.937 L92.054,26.112 C92.054,26.3586679 91.9738341,26.5683325 91.8135,26.741 C91.6531659,26.9136675 91.4373347,27 91.166,27 L87.799,27 Z M111.072,27 C110.825332,27 110.615668,26.9136675 110.443,26.741 C110.270332,26.5683325 110.184,26.3586679 110.184,26.112 L110.184,8.648 C110.184,8.37666531 110.270332,8.16083414 110.443,8.0005 C110.615668,7.84016587 110.825332,7.76 111.072,7.76 L113.995,7.76 C114.266335,7.76 114.482166,7.84016587 114.6425,8.0005 C114.802834,8.16083414 114.883,8.37666531 114.883,8.648 L114.883,9.906 C116.215007,8.22865828 118.003322,7.39 120.248,7.39 C122.986014,7.39 124.897661,8.48765569 125.983,10.683 C126.575003,9.6963284 127.413661,8.90083635 128.499,8.2965 C129.584339,7.69216364 130.755994,7.39 132.014,7.39 C134.036677,7.39 135.689327,8.08065976 136.972,9.462 C138.254673,10.8433402 138.896,12.8536535 138.896,15.493 L138.896,26.112 C138.896,26.3586679 138.815834,26.5683325 138.6555,26.741 C138.495166,26.9136675 138.279335,27 138.008,27 L134.937,27 C134.690332,27 134.480668,26.9136675 134.308,26.741 C134.135332,26.5683325 134.049,26.3586679 134.049,26.112 L134.049,15.789 C134.049,14.2349922 133.72217,13.1126701 133.0685,12.422 C132.41483,11.7313299 131.557672,11.386 130.497,11.386 C129.534995,11.386 128.714837,11.7374965 128.0365,12.4405 C127.358163,13.1435035 127.019,14.259659 127.019,15.789 L127.019,26.112 C127.019,26.3586679 126.938834,26.5683325 126.7785,26.741 C126.618166,26.9136675 126.402335,27 126.131,27 L123.023,27 C122.776332,27 122.566668,26.9136675 122.394,26.741 C122.221332,26.5683325 122.135,26.3586679 122.135,26.112 L122.135,15.789 C122.135,14.259659 121.802003,13.1435035 121.136,12.4405 C120.469997,11.7374965 119.619005,11.386 118.583,11.386 C117.620995,11.386 116.800837,11.7374965 116.1225,12.4405 C115.444163,13.1435035 115.105,14.259659 115.105,15.789 L115.105,26.112 C115.105,26.3586679 115.024834,26.5683325 114.8645,26.741 C114.704166,26.9136675 114.488335,27 114.217,27 L111.072,27 Z M149.182,27.37 C147.923994,27.37 146.770839,27.1171692 145.7225,26.6115 C144.674161,26.1058308 143.847836,25.4213377 143.2435,24.558 C142.639164,23.6946624 142.337,22.7450052 142.337,21.709 C142.337,20.0316583 143.015327,18.6750052 144.372,17.639 C145.728673,16.6029948 147.590988,15.9000019 149.959,15.53 L155.028,14.79 L155.028,14.013 C155.028,12.952328 154.756669,12.1506694 154.214,11.608 C153.671331,11.0653306 152.808006,10.794 151.624,10.794 C150.809996,10.794 150.156336,10.9419985 149.663,11.238 C149.169664,11.5340015 148.768835,11.8361651 148.4605,12.1445 L147.85,12.755 C147.751333,13.0510015 147.566335,13.199 147.295,13.199 L144.409,13.199 C144.186999,13.199 143.995834,13.1250007 143.8355,12.977 C143.675166,12.8289993 143.595,12.6316679 143.595,12.385 C143.619667,11.7683303 143.92183,11.0715039 144.5015,10.2945 C145.08117,9.51749612 145.975327,8.83916956 147.184,8.2595 C148.392673,7.67983044 149.884991,7.39 151.661,7.39 C154.571681,7.39 156.692993,8.04366013 158.025,9.351 C159.357007,10.6583399 160.023,12.3726561 160.023,14.494 L160.023,26.112 C160.023,26.3586679 159.942834,26.5683325 159.7825,26.741 C159.622166,26.9136675 159.406335,27 159.135,27 L156.064,27 C155.817332,27 155.607668,26.9136675 155.435,26.741 C155.262332,26.5683325 155.176,26.3586679 155.176,26.112 L155.176,24.669 C154.633331,25.4583373 153.868672,26.1058308 152.882,26.6115 C151.895328,27.1171692 150.662007,27.37 149.182,27.37 Z M150.44,23.818 C151.796673,23.818 152.906662,23.3740044 153.77,22.486 C154.633338,21.5979956 155.065,20.3153417 155.065,18.638 L155.065,17.898 L151.365,18.49 C148.528319,18.9340022 147.11,19.8836594 147.11,21.339 C147.11,22.1283373 147.43683,22.7388312 148.0905,23.1705 C148.74417,23.6021688 149.527329,23.818 150.44,23.818 Z M165.684,27 C165.437332,27 165.227668,26.9136675 165.055,26.741 C164.882332,26.5683325 164.796,26.3586679 164.796,26.112 L164.796,1.618 C164.796,1.34666531 164.882332,1.13083414 165.055,0.9705 C165.227668,0.810165865 165.437332,0.73 165.684,0.73 L168.792,0.73 C169.063335,0.73 169.279166,0.810165865 169.4395,0.9705 C169.599834,1.13083414 169.68,1.34666531 169.68,1.618 L169.68,26.112 C169.68,26.3586679 169.599834,26.5683325 169.4395,26.741 C169.279166,26.9136675 169.063335,27 168.792,27 L165.684,27 Z M175.526,27 C175.279332,27 175.069668,26.9136675 174.897,26.741 C174.724332,26.5683325 174.638,26.3586679 174.638,26.112 L174.638,1.618 C174.638,1.34666531 174.724332,1.13083414 174.897,0.9705 C175.069668,0.810165865 175.279332,0.73 175.526,0.73 L178.634,0.73 C178.905335,0.73 179.121166,0.810165865 179.2815,0.9705 C179.441834,1.13083414 179.522,1.34666531 179.522,1.618 L179.522,26.112 C179.522,26.3586679 179.441834,26.5683325 179.2815,26.741 C179.121166,26.9136675 178.905335,27 178.634,27 L175.526,27 Z M192.99,27.37 C190.079319,27.37 187.834675,26.6300074 186.256,25.15 C184.677325,23.6699926 183.826334,21.6226797 183.703,19.008 L183.666,17.38 L183.703,15.752 C183.826334,13.161987 184.689659,11.1208408 186.293,9.6285 C187.896341,8.13615921 190.128652,7.39 192.99,7.39 C195.826681,7.39 198.046659,8.13615921 199.65,9.6285 C201.253341,11.1208408 202.116666,13.161987 202.24,15.752 C202.264667,16.0480015 202.277,16.5906627 202.277,17.38 C202.277,18.1693373 202.264667,18.7119985 202.24,19.008 C202.116666,21.6226797 201.265675,23.6699926 199.687,25.15 C198.108325,26.6300074 195.876014,27.37 192.99,27.37 Z M192.99,23.633 C194.29734,23.633 195.302496,23.2260041 196.0055,22.412 C196.708504,21.5979959 197.084666,20.4016746 197.134,18.823 C197.158667,18.5763321 197.171,18.0953369 197.171,17.38 C197.171,16.6646631 197.158667,16.1836679 197.134,15.937 C197.084666,14.3583254 196.702337,13.1558375 195.987,12.3295 C195.271663,11.5031625 194.272673,11.09 192.99,11.09 C191.68266,11.09 190.671337,11.5031625 189.956,12.3295 C189.240663,13.1558375 188.858334,14.3583254 188.809,15.937 L188.772,17.38 L188.809,18.823 C188.858334,20.4016746 189.240663,21.5979959 189.956,22.412 C190.671337,23.2260041 191.68266,23.633 192.99,23.633 Z M211.638,27 C211.02133,27 210.614334,26.6916697 210.417,26.075 L205.126,8.907 C205.101333,8.83299963 205.089,8.72200074 205.089,8.574 C205.089,8.35199889 205.162999,8.16083414 205.311,8.0005 C205.459001,7.84016587 205.643999,7.76 205.866,7.76 L208.678,7.76 C208.924668,7.76 209.140499,7.83399926 209.3255,7.982 C209.510501,8.13000074 209.627666,8.29033247 209.677,8.463 L213.266,20.636 L217.077,8.574 C217.151,8.35199889 217.280499,8.16083414 217.4655,8.0005 C217.650501,7.84016587 217.890999,7.76 218.187,7.76 L220.074,7.76 C220.370001,7.76 220.610499,7.84016587 220.7955,8.0005 C220.980501,8.16083414 221.097666,8.35199889 221.147,8.574 L224.995,20.636 L228.584,8.463 C228.633334,8.29033247 228.744332,8.13000074 228.917,7.982 C229.089668,7.83399926 229.311665,7.76 229.583,7.76 L232.358,7.76 C232.580001,7.76 232.771166,7.84016587 232.9315,8.0005 C233.091834,8.16083414 233.172,8.35199889 233.172,8.574 L233.098,8.907 L227.807,26.075 C227.708333,26.3710015 227.566501,26.5991659 227.3815,26.7595 C227.196499,26.9198341 226.943668,27 226.623,27 L224.181,27 C223.539663,27 223.132668,26.6916697 222.96,26.075 L219.149,14.457 L215.301,26.075 C215.103666,26.6916697 214.684337,27 214.043,27 L211.638,27 Z M237.427,27 C237.180332,27 236.970668,26.9136675 236.798,26.741 C236.625332,26.5683325 236.539,26.3586679 236.539,26.112 L236.539,22.375 C236.539,22.1283321 236.625332,21.9186675 236.798,21.746 C236.970668,21.5733325 237.180332,21.487 237.427,21.487 L241.164,21.487 C241.410668,21.487 241.620332,21.5733325 241.793,21.746 C241.965668,21.9186675 242.052,22.1283321 242.052,22.375 L242.052,26.112 C242.052,26.3586679 241.971834,26.5683325 241.8115,26.741 C241.651166,26.9136675 241.435335,27 241.164,27 L237.427,27 Z" id="Marshmallow." fill="#000000" fill-rule="nonzero"></path>
    </g>
</svg>