<?xml version="1.0" encoding="UTF-8"?>
<svg width="55px" height="55px" viewBox="0 0 55 55" version="1.1" xmlns="http://www.w3.org/2000/svg" xmlns:xlink="http://www.w3.org/1999/xlink">
    <!-- Generator: Sketch 53 (72520) - https://sketchapp.com -->
    <title>12</title>
    <desc>Created with Sketch.</desc>
    <g id="Marshmello_landing-page" stroke="none" stroke-width="1" fill="none" fill-rule="evenodd">
        <g id="Marshmello_landngpage-Copy" transform="translate(-1023.000000, -2476.000000)" fill="#FF696D" fill-rule="nonzero">
            <g id="12" transform="translate(1023.000000, 2476.000000)">
                <path d="M52.8515625,0 L35.6640625,0 C32.3448944,0 29.3874359,1.57649991 27.5,4.01992798 C25.6125641,1.57649991 22.6551056,0 19.3359375,0 C17.6549529,0 3.82606512,0 2.1484375,0 C0.961761475,0 0,0.961761475 0,2.1484375 L0,52.8515625 C0,54.0382385 0.961761475,55 2.1484375,55 L52.8515625,55 C54.0382385,55 55,54.0382385 55,52.8515625 C55,50.3569412 55,4.37534335 55,2.1484375 C55,0.961761475 54.0382385,0 52.8515625,0 Z M12.4609375,4.296875 L17.1875,4.296875 L17.1875,10.506363 L16.072998,9.71035001 C15.6995392,9.44347379 15.261879,9.31003573 14.8242188,9.31003573 C14.3865585,9.31003573 13.9488983,9.44347379 13.5754395,9.71035001 L12.4609375,10.506363 L12.4609375,4.296875 Z M4.296875,50.703125 L4.296875,46.8359375 L19.3359375,46.8359375 C21.896019,46.8359375 24.0864181,48.4443283 24.9533463,50.703125 L4.296875,50.703125 Z M25.3515625,44.4797897 C23.6571502,43.2591248 21.5792083,42.5390625 19.3359375,42.5390625 L4.296875,42.5390625 L4.296875,4.296875 L8.1640625,4.296875 L8.1640625,14.6811295 C8.1640625,16.4246369 10.1408768,17.4443054 11.5612793,16.4292526 L14.8242188,14.0987015 L18.0871582,16.4292526 C19.4974899,17.4367523 21.484375,16.4372253 21.484375,14.6811295 L21.484375,4.69509122 C23.7431717,5.56201938 25.3515625,7.75199885 25.3515625,10.3125 L25.3515625,44.4797897 Z M50.703125,50.703125 L30.0466537,50.703125 C30.9135819,48.4443283 33.103981,46.8359375 35.6640625,46.8359375 L50.703125,46.8359375 L50.703125,50.703125 Z M50.703125,42.5390625 L35.6640625,42.5390625 C33.4207917,42.5390625 31.3428498,43.2591248 29.6484375,44.4797897 L29.6484375,10.3125 C29.6484375,6.99543002 32.3469925,4.296875 35.6640625,4.296875 L50.703125,4.296875 L50.703125,42.5390625 Z M21.484375,23.4179688 C21.484375,24.6046448 20.5226135,25.5664063 19.3359375,25.5664063 L10.3125,25.5664063 C9.12582397,25.5664063 8.1640625,24.6046448 8.1640625,23.4179688 C8.1640625,22.2312927 9.12582397,21.2695313 10.3125,21.2695313 L19.3359375,21.2695313 C20.5226135,21.2695313 21.484375,22.2312927 21.484375,23.4179688 Z M21.484375,32.154808 C21.484375,33.341484 20.5226135,34.3032455 19.3359375,34.3032455 L10.3125,34.3032455 C9.12582397,34.3032455 8.1640625,33.341484 8.1640625,32.154808 C8.1640625,30.968132 9.12582397,30.0063705 10.3125,30.0063705 L19.3359375,30.0063705 C20.5226135,30.0063705 21.484375,30.968132 21.484375,32.154808 Z M46.8359375,23.4179688 C46.8359375,24.6046448 45.874176,25.5664063 44.6875,25.5664063 L35.6640625,25.5664063 C34.4773865,25.5664063 33.515625,24.6046448 33.515625,23.4179688 C33.515625,22.2312927 34.4773865,21.2695313 35.6640625,21.2695313 L44.6875,21.2695313 C45.874176,21.2695313 46.8359375,22.2312927 46.8359375,23.4179688 Z M35.6640625,12.532692 L44.6875,12.532692 C45.874176,12.532692 46.8359375,13.4944535 46.8359375,14.6811295 C46.8359375,15.8678055 45.874176,16.829567 44.6875,16.829567 L35.6640625,16.829567 C34.4773865,16.829567 33.515625,15.8678055 33.515625,14.6811295 C33.515625,13.4944535 34.4773865,12.532692 35.6640625,12.532692 Z M46.8359375,32.154808 C46.8359375,33.341484 45.874176,34.3032455 44.6875,34.3032455 L35.6640625,34.3032455 C34.4773865,34.3032455 33.515625,33.341484 33.515625,32.154808 C33.515625,30.968132 34.4773865,30.0063705 35.6640625,30.0063705 L44.6875,30.0063705 C45.874176,30.0063705 46.8359375,30.968132 46.8359375,32.154808 Z" id="Shape"></path>
            </g>
        </g>
    </g>
</svg>